<svg width="100" height="100" viewBox="0 0 100 100" fill="none" xmlns="http://www.w3.org/2000/svg">
<path d="M90 0H10C4.47715 0 0 4.47716 0 10V90C0 95.5229 4.47716 100 10 100H90C95.5229 100 100 95.5228 100 90V10C100 4.47715 95.5228 0 90 0Z" fill="white"/>
<path d="M8.10345 5H5V8.10345H8.10345V5Z" fill="black"/>
<path d="M11.2069 5H8.10345V8.10345H11.2069V5Z" fill="black"/>
<path d="M14.3103 5H11.2069V8.10345H14.3103V5Z" fill="black"/>
<path d="M17.4138 5H14.3103V8.10345H17.4138V5Z" fill="black"/>
<path d="M20.5172 5H17.4138V8.10345H20.5172V5Z" fill="black"/>
<path d="M23.6207 5H20.5172V8.10345H23.6207V5Z" fill="black"/>
<path d="M26.7241 5H23.6207V8.10345H26.7241V5Z" fill="black"/>
<path d="M32.931 5H29.8276V8.10345H32.931V5Z" fill="black"/>
<path d="M42.2414 5H39.1379V8.10345H42.2414V5Z" fill="black"/>
<path d="M45.3448 5H42.2414V8.10345H45.3448V5Z" fill="black"/>
<path d="M48.4483 5H45.3448V8.10345H48.4483V5Z" fill="black"/>
<path d="M51.5517 5H48.4483V8.10345H51.5517V5Z" fill="black"/>
<path d="M54.6552 5H51.5517V8.10345H54.6552V5Z" fill="black"/>
<path d="M60.8621 5H57.7586V8.10345H60.8621V5Z" fill="black"/>
<path d="M63.9655 5H60.8621V8.10345H63.9655V5Z" fill="black"/>
<path d="M67.069 5H63.9655V8.10345H67.069V5Z" fill="black"/>
<path d="M70.1724 5H67.069V8.10345H70.1724V5Z" fill="black"/>
<path d="M76.3793 5H73.2759V8.10345H76.3793V5Z" fill="black"/>
<path d="M79.4828 5H76.3793V8.10345H79.4828V5Z" fill="black"/>
<path d="M82.5862 5H79.4828V8.10345H82.5862V5Z" fill="black"/>
<path d="M85.6897 5H82.5862V8.10345H85.6897V5Z" fill="black"/>
<path d="M88.7931 5H85.6897V8.10345H88.7931V5Z" fill="black"/>
<path d="M91.8966 5H88.7931V8.10345H91.8966V5Z" fill="black"/>
<path d="M95 5H91.8966V8.10345H95V5Z" fill="black"/>
<path d="M8.10345 8.10345H5V11.2069H8.10345V8.10345Z" fill="black"/>
<path d="M26.7241 8.10345H23.6207V11.2069H26.7241V8.10345Z" fill="black"/>
<path d="M36.0345 8.10345H32.931V11.2069H36.0345V8.10345Z" fill="black"/>
<path d="M54.6552 8.10345H51.5517V11.2069H54.6552V8.10345Z" fill="black"/>
<path d="M57.7586 8.10345H54.6552V11.2069H57.7586V8.10345Z" fill="black"/>
<path d="M60.8621 8.10345H57.7586V11.2069H60.8621V8.10345Z" fill="black"/>
<path d="M63.9655 8.10345H60.8621V11.2069H63.9655V8.10345Z" fill="black"/>
<path d="M76.3793 8.10345H73.2759V11.2069H76.3793V8.10345Z" fill="black"/>
<path d="M95 8.10345H91.8966V11.2069H95V8.10345Z" fill="black"/>
<path d="M8.10345 11.2069H5V14.3103H8.10345V11.2069Z" fill="black"/>
<path d="M14.3103 11.2069H11.2069V14.3103H14.3103V11.2069Z" fill="black"/>
<path d="M17.4138 11.2069H14.3103V14.3103H17.4138V11.2069Z" fill="black"/>
<path d="M20.5172 11.2069H17.4138V14.3103H20.5172V11.2069Z" fill="black"/>
<path d="M26.7241 11.2069H23.6207V14.3103H26.7241V11.2069Z" fill="black"/>
<path d="M42.2414 11.2069H39.1379V14.3103H42.2414V11.2069Z" fill="black"/>
<path d="M45.3448 11.2069H42.2414V14.3103H45.3448V11.2069Z" fill="black"/>
<path d="M63.9655 11.2069H60.8621V14.3103H63.9655V11.2069Z" fill="black"/>
<path d="M76.3793 11.2069H73.2759V14.3103H76.3793V11.2069Z" fill="black"/>
<path d="M82.5862 11.2069H79.4828V14.3103H82.5862V11.2069Z" fill="black"/>
<path d="M85.6897 11.2069H82.5862V14.3103H85.6897V11.2069Z" fill="black"/>
<path d="M88.7931 11.2069H85.6897V14.3103H88.7931V11.2069Z" fill="black"/>
<path d="M95 11.2069H91.8966V14.3103H95V11.2069Z" fill="black"/>
<path d="M8.10345 14.3103H5V17.4138H8.10345V14.3103Z" fill="black"/>
<path d="M14.3103 14.3103H11.2069V17.4138H14.3103V14.3103Z" fill="black"/>
<path d="M17.4138 14.3103H14.3103V17.4138H17.4138V14.3103Z" fill="black"/>
<path d="M20.5172 14.3103H17.4138V17.4138H20.5172V14.3103Z" fill="black"/>
<path d="M26.7241 14.3103H23.6207V17.4138H26.7241V14.3103Z" fill="black"/>
<path d="M36.0345 14.3103H32.931V17.4138H36.0345V14.3103Z" fill="black"/>
<path d="M39.1379 14.3103H36.0345V17.4138H39.1379V14.3103Z" fill="black"/>
<path d="M51.5517 14.3103H48.4483V17.4138H51.5517V14.3103Z" fill="black"/>
<path d="M54.6552 14.3103H51.5517V17.4138H54.6552V14.3103Z" fill="black"/>
<path d="M60.8621 14.3103H57.7586V17.4138H60.8621V14.3103Z" fill="black"/>
<path d="M63.9655 14.3103H60.8621V17.4138H63.9655V14.3103Z" fill="black"/>
<path d="M67.069 14.3103H63.9655V17.4138H67.069V14.3103Z" fill="black"/>
<path d="M70.1724 14.3103H67.069V17.4138H70.1724V14.3103Z" fill="black"/>
<path d="M76.3793 14.3103H73.2759V17.4138H76.3793V14.3103Z" fill="black"/>
<path d="M82.5862 14.3103H79.4828V17.4138H82.5862V14.3103Z" fill="black"/>
<path d="M85.6897 14.3103H82.5862V17.4138H85.6897V14.3103Z" fill="black"/>
<path d="M88.7931 14.3103H85.6897V17.4138H88.7931V14.3103Z" fill="black"/>
<path d="M95 14.3103H91.8966V17.4138H95V14.3103Z" fill="black"/>
<path d="M8.10345 17.4138H5V20.5172H8.10345V17.4138Z" fill="black"/>
<path d="M14.3103 17.4138H11.2069V20.5172H14.3103V17.4138Z" fill="black"/>
<path d="M17.4138 17.4138H14.3103V20.5172H17.4138V17.4138Z" fill="black"/>
<path d="M20.5172 17.4138H17.4138V20.5172H20.5172V17.4138Z" fill="black"/>
<path d="M26.7241 17.4138H23.6207V20.5172H26.7241V17.4138Z" fill="black"/>
<path d="M36.0345 17.4138H32.931V20.5172H36.0345V17.4138Z" fill="black"/>
<path d="M48.4483 17.4138H45.3448V20.5172H48.4483V17.4138Z" fill="black"/>
<path d="M51.5517 17.4138H48.4483V20.5172H51.5517V17.4138Z" fill="black"/>
<path d="M54.6552 17.4138H51.5517V20.5172H54.6552V17.4138Z" fill="black"/>
<path d="M60.8621 17.4138H57.7586V20.5172H60.8621V17.4138Z" fill="black"/>
<path d="M63.9655 17.4138H60.8621V20.5172H63.9655V17.4138Z" fill="black"/>
<path d="M67.069 17.4138H63.9655V20.5172H67.069V17.4138Z" fill="black"/>
<path d="M70.1724 17.4138H67.069V20.5172H70.1724V17.4138Z" fill="black"/>
<path d="M76.3793 17.4138H73.2759V20.5172H76.3793V17.4138Z" fill="black"/>
<path d="M82.5862 17.4138H79.4828V20.5172H82.5862V17.4138Z" fill="black"/>
<path d="M85.6897 17.4138H82.5862V20.5172H85.6897V17.4138Z" fill="black"/>
<path d="M88.7931 17.4138H85.6897V20.5172H88.7931V17.4138Z" fill="black"/>
<path d="M95 17.4138H91.8966V20.5172H95V17.4138Z" fill="black"/>
<path d="M8.10345 20.5172H5V23.6207H8.10345V20.5172Z" fill="black"/>
<path d="M26.7241 20.5172H23.6207V23.6207H26.7241V20.5172Z" fill="black"/>
<path d="M51.5517 20.5172H48.4483V23.6207H51.5517V20.5172Z" fill="black"/>
<path d="M67.069 20.5172H63.9655V23.6207H67.069V20.5172Z" fill="black"/>
<path d="M70.1724 20.5172H67.069V23.6207H70.1724V20.5172Z" fill="black"/>
<path d="M76.3793 20.5172H73.2759V23.6207H76.3793V20.5172Z" fill="black"/>
<path d="M95 20.5172H91.8966V23.6207H95V20.5172Z" fill="black"/>
<path d="M8.10345 23.6207H5V26.7241H8.10345V23.6207Z" fill="black"/>
<path d="M11.2069 23.6207H8.10345V26.7241H11.2069V23.6207Z" fill="black"/>
<path d="M14.3103 23.6207H11.2069V26.7241H14.3103V23.6207Z" fill="black"/>
<path d="M17.4138 23.6207H14.3103V26.7241H17.4138V23.6207Z" fill="black"/>
<path d="M20.5172 23.6207H17.4138V26.7241H20.5172V23.6207Z" fill="black"/>
<path d="M23.6207 23.6207H20.5172V26.7241H23.6207V23.6207Z" fill="black"/>
<path d="M26.7241 23.6207H23.6207V26.7241H26.7241V23.6207Z" fill="black"/>
<path d="M32.931 23.6207H29.8276V26.7241H32.931V23.6207Z" fill="black"/>
<path d="M39.1379 23.6207H36.0345V26.7241H39.1379V23.6207Z" fill="black"/>
<path d="M45.3448 23.6207H42.2414V26.7241H45.3448V23.6207Z" fill="black"/>
<path d="M51.5517 23.6207H48.4483V26.7241H51.5517V23.6207Z" fill="black"/>
<path d="M57.7586 23.6207H54.6552V26.7241H57.7586V23.6207Z" fill="black"/>
<path d="M63.9655 23.6207H60.8621V26.7241H63.9655V23.6207Z" fill="black"/>
<path d="M70.1724 23.6207H67.069V26.7241H70.1724V23.6207Z" fill="black"/>
<path d="M76.3793 23.6207H73.2759V26.7241H76.3793V23.6207Z" fill="black"/>
<path d="M79.4828 23.6207H76.3793V26.7241H79.4828V23.6207Z" fill="black"/>
<path d="M82.5862 23.6207H79.4828V26.7241H82.5862V23.6207Z" fill="black"/>
<path d="M85.6897 23.6207H82.5862V26.7241H85.6897V23.6207Z" fill="black"/>
<path d="M88.7931 23.6207H85.6897V26.7241H88.7931V23.6207Z" fill="black"/>
<path d="M91.8966 23.6207H88.7931V26.7241H91.8966V23.6207Z" fill="black"/>
<path d="M95 23.6207H91.8966V26.7241H95V23.6207Z" fill="black"/>
<path d="M36.0345 26.7241H32.931V29.8276H36.0345V26.7241Z" fill="black"/>
<path d="M45.3448 26.7241H42.2414V29.8276H45.3448V26.7241Z" fill="black"/>
<path d="M51.5517 26.7241H48.4483V29.8276H51.5517V26.7241Z" fill="black"/>
<path d="M54.6552 26.7241H51.5517V29.8276H54.6552V26.7241Z" fill="black"/>
<path d="M57.7586 26.7241H54.6552V29.8276H57.7586V26.7241Z" fill="black"/>
<path d="M60.8621 26.7241H57.7586V29.8276H60.8621V26.7241Z" fill="black"/>
<path d="M63.9655 26.7241H60.8621V29.8276H63.9655V26.7241Z" fill="black"/>
<path d="M67.069 26.7241H63.9655V29.8276H67.069V26.7241Z" fill="black"/>
<path d="M11.2069 29.8276H8.10345V32.931H11.2069V29.8276Z" fill="black"/>
<path d="M14.3103 29.8276H11.2069V32.931H14.3103V29.8276Z" fill="black"/>
<path d="M17.4138 29.8276H14.3103V32.931H17.4138V29.8276Z" fill="black"/>
<path d="M26.7241 29.8276H23.6207V32.931H26.7241V29.8276Z" fill="black"/>
<path d="M29.8276 29.8276H26.7241V32.931H29.8276V29.8276Z" fill="black"/>
<path d="M32.931 29.8276H29.8276V32.931H32.931V29.8276Z" fill="black"/>
<path d="M45.3448 29.8276H42.2414V32.931H45.3448V29.8276Z" fill="black"/>
<path d="M48.4483 29.8276H45.3448V32.931H48.4483V29.8276Z" fill="black"/>
<path d="M57.7586 29.8276H54.6552V32.931H57.7586V29.8276Z" fill="black"/>
<path d="M70.1724 29.8276H67.069V32.931H70.1724V29.8276Z" fill="black"/>
<path d="M73.2759 29.8276H70.1724V32.931H73.2759V29.8276Z" fill="black"/>
<path d="M95 29.8276H91.8966V32.931H95V29.8276Z" fill="black"/>
<path d="M8.10345 32.931H5V36.0345H8.10345V32.931Z" fill="black"/>
<path d="M11.2069 32.931H8.10345V36.0345H11.2069V32.931Z" fill="black"/>
<path d="M17.4138 32.931H14.3103V36.0345H17.4138V32.931Z" fill="black"/>
<path d="M20.5172 32.931H17.4138V36.0345H20.5172V32.931Z" fill="black"/>
<path d="M23.6207 32.931H20.5172V36.0345H23.6207V32.931Z" fill="black"/>
<path d="M29.8276 32.931H26.7241V36.0345H29.8276V32.931Z" fill="black"/>
<path d="M32.931 32.931H29.8276V36.0345H32.931V32.931Z" fill="black"/>
<path d="M39.1379 32.931H36.0345V36.0345H39.1379V32.931Z" fill="black"/>
<path d="M45.3448 32.931H42.2414V36.0345H45.3448V32.931Z" fill="black"/>
<path d="M48.4483 32.931H45.3448V36.0345H48.4483V32.931Z" fill="black"/>
<path d="M51.5517 32.931H48.4483V36.0345H51.5517V32.931Z" fill="black"/>
<path d="M57.7586 32.931H54.6552V36.0345H57.7586V32.931Z" fill="black"/>
<path d="M67.069 32.931H63.9655V36.0345H67.069V32.931Z" fill="black"/>
<path d="M70.1724 32.931H67.069V36.0345H70.1724V32.931Z" fill="black"/>
<path d="M73.2759 32.931H70.1724V36.0345H73.2759V32.931Z" fill="black"/>
<path d="M76.3793 32.931H73.2759V36.0345H76.3793V32.931Z" fill="black"/>
<path d="M85.6897 32.931H82.5862V36.0345H85.6897V32.931Z" fill="black"/>
<path d="M95 32.931H91.8966V36.0345H95V32.931Z" fill="black"/>
<path d="M8.10345 36.0345H5V39.1379H8.10345V36.0345Z" fill="black"/>
<path d="M14.3103 36.0345H11.2069V39.1379H14.3103V36.0345Z" fill="black"/>
<path d="M20.5172 36.0345H17.4138V39.1379H20.5172V36.0345Z" fill="black"/>
<path d="M26.7241 36.0345H23.6207V39.1379H26.7241V36.0345Z" fill="black"/>
<path d="M29.8276 36.0345H26.7241V39.1379H29.8276V36.0345Z" fill="black"/>
<path d="M36.0345 36.0345H32.931V39.1379H36.0345V36.0345Z" fill="black"/>
<path d="M39.1379 36.0345H36.0345V39.1379H39.1379V36.0345Z" fill="black"/>
<path d="M45.3448 36.0345H42.2414V39.1379H45.3448V36.0345Z" fill="black"/>
<path d="M54.6552 36.0345H51.5517V39.1379H54.6552V36.0345Z" fill="black"/>
<path d="M60.8621 36.0345H57.7586V39.1379H60.8621V36.0345Z" fill="black"/>
<path d="M63.9655 36.0345H60.8621V39.1379H63.9655V36.0345Z" fill="black"/>
<path d="M73.2759 36.0345H70.1724V39.1379H73.2759V36.0345Z" fill="black"/>
<path d="M79.4828 36.0345H76.3793V39.1379H79.4828V36.0345Z" fill="black"/>
<path d="M82.5862 36.0345H79.4828V39.1379H82.5862V36.0345Z" fill="black"/>
<path d="M88.7931 36.0345H85.6897V39.1379H88.7931V36.0345Z" fill="black"/>
<path d="M91.8966 36.0345H88.7931V39.1379H91.8966V36.0345Z" fill="black"/>
<path d="M14.3103 39.1379H11.2069V42.2414H14.3103V39.1379Z" fill="black"/>
<path d="M17.4138 39.1379H14.3103V42.2414H17.4138V39.1379Z" fill="black"/>
<path d="M20.5172 39.1379H17.4138V42.2414H20.5172V39.1379Z" fill="black"/>
<path d="M29.8276 39.1379H26.7241V42.2414H29.8276V39.1379Z" fill="black"/>
<path d="M36.0345 39.1379H32.931V42.2414H36.0345V39.1379Z" fill="black"/>
<path d="M39.1379 39.1379H36.0345V42.2414H39.1379V39.1379Z" fill="black"/>
<path d="M48.4483 39.1379H45.3448V42.2414H48.4483V39.1379Z" fill="black"/>
<path d="M51.5517 39.1379H48.4483V42.2414H51.5517V39.1379Z" fill="black"/>
<path d="M54.6552 39.1379H51.5517V42.2414H54.6552V39.1379Z" fill="black"/>
<path d="M57.7586 39.1379H54.6552V42.2414H57.7586V39.1379Z" fill="black"/>
<path d="M63.9655 39.1379H60.8621V42.2414H63.9655V39.1379Z" fill="black"/>
<path d="M70.1724 39.1379H67.069V42.2414H70.1724V39.1379Z" fill="black"/>
<path d="M76.3793 39.1379H73.2759V42.2414H76.3793V39.1379Z" fill="black"/>
<path d="M88.7931 39.1379H85.6897V42.2414H88.7931V39.1379Z" fill="black"/>
<path d="M91.8966 39.1379H88.7931V42.2414H91.8966V39.1379Z" fill="black"/>
<path d="M95 39.1379H91.8966V42.2414H95V39.1379Z" fill="black"/>
<path d="M8.10345 42.2414H5V45.3448H8.10345V42.2414Z" fill="black"/>
<path d="M23.6207 42.2414H20.5172V45.3448H23.6207V42.2414Z" fill="black"/>
<path d="M26.7241 42.2414H23.6207V45.3448H26.7241V42.2414Z" fill="black"/>
<path d="M32.931 42.2414H29.8276V45.3448H32.931V42.2414Z" fill="black"/>
<path d="M39.1379 42.2414H36.0345V45.3448H39.1379V42.2414Z" fill="black"/>
<path d="M48.4483 42.2414H45.3448V45.3448H48.4483V42.2414Z" fill="black"/>
<path d="M54.6552 42.2414H51.5517V45.3448H54.6552V42.2414Z" fill="black"/>
<path d="M57.7586 42.2414H54.6552V45.3448H57.7586V42.2414Z" fill="black"/>
<path d="M60.8621 42.2414H57.7586V45.3448H60.8621V42.2414Z" fill="black"/>
<path d="M63.9655 42.2414H60.8621V45.3448H63.9655V42.2414Z" fill="black"/>
<path d="M70.1724 42.2414H67.069V45.3448H70.1724V42.2414Z" fill="black"/>
<path d="M76.3793 42.2414H73.2759V45.3448H76.3793V42.2414Z" fill="black"/>
<path d="M79.4828 42.2414H76.3793V45.3448H79.4828V42.2414Z" fill="black"/>
<path d="M82.5862 42.2414H79.4828V45.3448H82.5862V42.2414Z" fill="black"/>
<path d="M88.7931 42.2414H85.6897V45.3448H88.7931V42.2414Z" fill="black"/>
<path d="M91.8966 42.2414H88.7931V45.3448H91.8966V42.2414Z" fill="black"/>
<path d="M11.2069 45.3448H8.10345V48.4483H11.2069V45.3448Z" fill="black"/>
<path d="M14.3103 45.3448H11.2069V48.4483H14.3103V45.3448Z" fill="black"/>
<path d="M36.0345 45.3448H32.931V48.4483H36.0345V45.3448Z" fill="black"/>
<path d="M39.1379 45.3448H36.0345V48.4483H39.1379V45.3448Z" fill="black"/>
<path d="M42.2414 45.3448H39.1379V48.4483H42.2414V45.3448Z" fill="black"/>
<path d="M45.3448 45.3448H42.2414V48.4483H45.3448V45.3448Z" fill="black"/>
<path d="M60.8621 45.3448H57.7586V48.4483H60.8621V45.3448Z" fill="black"/>
<path d="M67.069 45.3448H63.9655V48.4483H67.069V45.3448Z" fill="black"/>
<path d="M82.5862 45.3448H79.4828V48.4483H82.5862V45.3448Z" fill="black"/>
<path d="M91.8966 45.3448H88.7931V48.4483H91.8966V45.3448Z" fill="black"/>
<path d="M11.2069 48.4483H8.10345V51.5517H11.2069V48.4483Z" fill="black"/>
<path d="M26.7241 48.4483H23.6207V51.5517H26.7241V48.4483Z" fill="black"/>
<path d="M29.8276 48.4483H26.7241V51.5517H29.8276V48.4483Z" fill="black"/>
<path d="M39.1379 48.4483H36.0345V51.5517H39.1379V48.4483Z" fill="black"/>
<path d="M60.8621 48.4483H57.7586V51.5517H60.8621V48.4483Z" fill="black"/>
<path d="M70.1724 48.4483H67.069V51.5517H70.1724V48.4483Z" fill="black"/>
<path d="M73.2759 48.4483H70.1724V51.5517H73.2759V48.4483Z" fill="black"/>
<path d="M79.4828 48.4483H76.3793V51.5517H79.4828V48.4483Z" fill="black"/>
<path d="M82.5862 48.4483H79.4828V51.5517H82.5862V48.4483Z" fill="black"/>
<path d="M85.6897 48.4483H82.5862V51.5517H85.6897V48.4483Z" fill="black"/>
<path d="M91.8966 48.4483H88.7931V51.5517H91.8966V48.4483Z" fill="black"/>
<path d="M8.10345 51.5517H5V54.6552H8.10345V51.5517Z" fill="black"/>
<path d="M14.3103 51.5517H11.2069V54.6552H14.3103V51.5517Z" fill="black"/>
<path d="M20.5172 51.5517H17.4138V54.6552H20.5172V51.5517Z" fill="black"/>
<path d="M23.6207 51.5517H20.5172V54.6552H23.6207V51.5517Z" fill="black"/>
<path d="M29.8276 51.5517H26.7241V54.6552H29.8276V51.5517Z" fill="black"/>
<path d="M39.1379 51.5517H36.0345V54.6552H39.1379V51.5517Z" fill="black"/>
<path d="M45.3448 51.5517H42.2414V54.6552H45.3448V51.5517Z" fill="black"/>
<path d="M54.6552 51.5517H51.5517V54.6552H54.6552V51.5517Z" fill="black"/>
<path d="M63.9655 51.5517H60.8621V54.6552H63.9655V51.5517Z" fill="black"/>
<path d="M70.1724 51.5517H67.069V54.6552H70.1724V51.5517Z" fill="black"/>
<path d="M79.4828 51.5517H76.3793V54.6552H79.4828V51.5517Z" fill="black"/>
<path d="M88.7931 51.5517H85.6897V54.6552H88.7931V51.5517Z" fill="black"/>
<path d="M95 51.5517H91.8966V54.6552H95V51.5517Z" fill="black"/>
<path d="M8.10345 54.6552H5V57.7586H8.10345V54.6552Z" fill="black"/>
<path d="M11.2069 54.6552H8.10345V57.7586H11.2069V54.6552Z" fill="black"/>
<path d="M17.4138 54.6552H14.3103V57.7586H17.4138V54.6552Z" fill="black"/>
<path d="M20.5172 54.6552H17.4138V57.7586H20.5172V54.6552Z" fill="black"/>
<path d="M26.7241 54.6552H23.6207V57.7586H26.7241V54.6552Z" fill="black"/>
<path d="M29.8276 54.6552H26.7241V57.7586H29.8276V54.6552Z" fill="black"/>
<path d="M32.931 54.6552H29.8276V57.7586H32.931V54.6552Z" fill="black"/>
<path d="M36.0345 54.6552H32.931V57.7586H36.0345V54.6552Z" fill="black"/>
<path d="M39.1379 54.6552H36.0345V57.7586H39.1379V54.6552Z" fill="black"/>
<path d="M45.3448 54.6552H42.2414V57.7586H45.3448V54.6552Z" fill="black"/>
<path d="M48.4483 54.6552H45.3448V57.7586H48.4483V54.6552Z" fill="black"/>
<path d="M57.7586 54.6552H54.6552V57.7586H57.7586V54.6552Z" fill="black"/>
<path d="M79.4828 54.6552H76.3793V57.7586H79.4828V54.6552Z" fill="black"/>
<path d="M88.7931 54.6552H85.6897V57.7586H88.7931V54.6552Z" fill="black"/>
<path d="M91.8966 54.6552H88.7931V57.7586H91.8966V54.6552Z" fill="black"/>
<path d="M8.10345 57.7586H5V60.8621H8.10345V57.7586Z" fill="black"/>
<path d="M11.2069 57.7586H8.10345V60.8621H11.2069V57.7586Z" fill="black"/>
<path d="M17.4138 57.7586H14.3103V60.8621H17.4138V57.7586Z" fill="black"/>
<path d="M32.931 57.7586H29.8276V60.8621H32.931V57.7586Z" fill="black"/>
<path d="M39.1379 57.7586H36.0345V60.8621H39.1379V57.7586Z" fill="black"/>
<path d="M48.4483 57.7586H45.3448V60.8621H48.4483V57.7586Z" fill="black"/>
<path d="M60.8621 57.7586H57.7586V60.8621H60.8621V57.7586Z" fill="black"/>
<path d="M67.069 57.7586H63.9655V60.8621H67.069V57.7586Z" fill="black"/>
<path d="M82.5862 57.7586H79.4828V60.8621H82.5862V57.7586Z" fill="black"/>
<path d="M85.6897 57.7586H82.5862V60.8621H85.6897V57.7586Z" fill="black"/>
<path d="M88.7931 57.7586H85.6897V60.8621H88.7931V57.7586Z" fill="black"/>
<path d="M91.8966 57.7586H88.7931V60.8621H91.8966V57.7586Z" fill="black"/>
<path d="M14.3103 60.8621H11.2069V63.9655H14.3103V60.8621Z" fill="black"/>
<path d="M17.4138 60.8621H14.3103V63.9655H17.4138V60.8621Z" fill="black"/>
<path d="M23.6207 60.8621H20.5172V63.9655H23.6207V60.8621Z" fill="black"/>
<path d="M26.7241 60.8621H23.6207V63.9655H26.7241V60.8621Z" fill="black"/>
<path d="M32.931 60.8621H29.8276V63.9655H32.931V60.8621Z" fill="black"/>
<path d="M45.3448 60.8621H42.2414V63.9655H45.3448V60.8621Z" fill="black"/>
<path d="M51.5517 60.8621H48.4483V63.9655H51.5517V60.8621Z" fill="black"/>
<path d="M57.7586 60.8621H54.6552V63.9655H57.7586V60.8621Z" fill="black"/>
<path d="M60.8621 60.8621H57.7586V63.9655H60.8621V60.8621Z" fill="black"/>
<path d="M67.069 60.8621H63.9655V63.9655H67.069V60.8621Z" fill="black"/>
<path d="M73.2759 60.8621H70.1724V63.9655H73.2759V60.8621Z" fill="black"/>
<path d="M76.3793 60.8621H73.2759V63.9655H76.3793V60.8621Z" fill="black"/>
<path d="M82.5862 60.8621H79.4828V63.9655H82.5862V60.8621Z" fill="black"/>
<path d="M91.8966 60.8621H88.7931V63.9655H91.8966V60.8621Z" fill="black"/>
<path d="M20.5172 63.9655H17.4138V67.069H20.5172V63.9655Z" fill="black"/>
<path d="M32.931 63.9655H29.8276V67.069H32.931V63.9655Z" fill="black"/>
<path d="M36.0345 63.9655H32.931V67.069H36.0345V63.9655Z" fill="black"/>
<path d="M45.3448 63.9655H42.2414V67.069H45.3448V63.9655Z" fill="black"/>
<path d="M48.4483 63.9655H45.3448V67.069H48.4483V63.9655Z" fill="black"/>
<path d="M57.7586 63.9655H54.6552V67.069H57.7586V63.9655Z" fill="black"/>
<path d="M60.8621 63.9655H57.7586V67.069H60.8621V63.9655Z" fill="black"/>
<path d="M63.9655 63.9655H60.8621V67.069H63.9655V63.9655Z" fill="black"/>
<path d="M73.2759 63.9655H70.1724V67.069H73.2759V63.9655Z" fill="black"/>
<path d="M76.3793 63.9655H73.2759V67.069H76.3793V63.9655Z" fill="black"/>
<path d="M82.5862 63.9655H79.4828V67.069H82.5862V63.9655Z" fill="black"/>
<path d="M91.8966 63.9655H88.7931V67.069H91.8966V63.9655Z" fill="black"/>
<path d="M8.10345 67.069H5V70.1724H8.10345V67.069Z" fill="black"/>
<path d="M14.3103 67.069H11.2069V70.1724H14.3103V67.069Z" fill="black"/>
<path d="M26.7241 67.069H23.6207V70.1724H26.7241V67.069Z" fill="black"/>
<path d="M32.931 67.069H29.8276V70.1724H32.931V67.069Z" fill="black"/>
<path d="M36.0345 67.069H32.931V70.1724H36.0345V67.069Z" fill="black"/>
<path d="M39.1379 67.069H36.0345V70.1724H39.1379V67.069Z" fill="black"/>
<path d="M42.2414 67.069H39.1379V70.1724H42.2414V67.069Z" fill="black"/>
<path d="M54.6552 67.069H51.5517V70.1724H54.6552V67.069Z" fill="black"/>
<path d="M57.7586 67.069H54.6552V70.1724H57.7586V67.069Z" fill="black"/>
<path d="M63.9655 67.069H60.8621V70.1724H63.9655V67.069Z" fill="black"/>
<path d="M67.069 67.069H63.9655V70.1724H67.069V67.069Z" fill="black"/>
<path d="M70.1724 67.069H67.069V70.1724H70.1724V67.069Z" fill="black"/>
<path d="M73.2759 67.069H70.1724V70.1724H73.2759V67.069Z" fill="black"/>
<path d="M76.3793 67.069H73.2759V70.1724H76.3793V67.069Z" fill="black"/>
<path d="M79.4828 67.069H76.3793V70.1724H79.4828V67.069Z" fill="black"/>
<path d="M82.5862 67.069H79.4828V70.1724H82.5862V67.069Z" fill="black"/>
<path d="M88.7931 67.069H85.6897V70.1724H88.7931V67.069Z" fill="black"/>
<path d="M32.931 70.1724H29.8276V73.2759H32.931V70.1724Z" fill="black"/>
<path d="M42.2414 70.1724H39.1379V73.2759H42.2414V70.1724Z" fill="black"/>
<path d="M45.3448 70.1724H42.2414V73.2759H45.3448V70.1724Z" fill="black"/>
<path d="M54.6552 70.1724H51.5517V73.2759H54.6552V70.1724Z" fill="black"/>
<path d="M57.7586 70.1724H54.6552V73.2759H57.7586V70.1724Z" fill="black"/>
<path d="M60.8621 70.1724H57.7586V73.2759H60.8621V70.1724Z" fill="black"/>
<path d="M63.9655 70.1724H60.8621V73.2759H63.9655V70.1724Z" fill="black"/>
<path d="M67.069 70.1724H63.9655V73.2759H67.069V70.1724Z" fill="black"/>
<path d="M70.1724 70.1724H67.069V73.2759H70.1724V70.1724Z" fill="black"/>
<path d="M82.5862 70.1724H79.4828V73.2759H82.5862V70.1724Z" fill="black"/>
<path d="M8.10345 73.2759H5V76.3793H8.10345V73.2759Z" fill="black"/>
<path d="M11.2069 73.2759H8.10345V76.3793H11.2069V73.2759Z" fill="black"/>
<path d="M14.3103 73.2759H11.2069V76.3793H14.3103V73.2759Z" fill="black"/>
<path d="M17.4138 73.2759H14.3103V76.3793H17.4138V73.2759Z" fill="black"/>
<path d="M20.5172 73.2759H17.4138V76.3793H20.5172V73.2759Z" fill="black"/>
<path d="M23.6207 73.2759H20.5172V76.3793H23.6207V73.2759Z" fill="black"/>
<path d="M26.7241 73.2759H23.6207V76.3793H26.7241V73.2759Z" fill="black"/>
<path d="M32.931 73.2759H29.8276V76.3793H32.931V73.2759Z" fill="black"/>
<path d="M45.3448 73.2759H42.2414V76.3793H45.3448V73.2759Z" fill="black"/>
<path d="M48.4483 73.2759H45.3448V76.3793H48.4483V73.2759Z" fill="black"/>
<path d="M51.5517 73.2759H48.4483V76.3793H51.5517V73.2759Z" fill="black"/>
<path d="M60.8621 73.2759H57.7586V76.3793H60.8621V73.2759Z" fill="black"/>
<path d="M70.1724 73.2759H67.069V76.3793H70.1724V73.2759Z" fill="black"/>
<path d="M76.3793 73.2759H73.2759V76.3793H76.3793V73.2759Z" fill="black"/>
<path d="M82.5862 73.2759H79.4828V76.3793H82.5862V73.2759Z" fill="black"/>
<path d="M88.7931 73.2759H85.6897V76.3793H88.7931V73.2759Z" fill="black"/>
<path d="M91.8966 73.2759H88.7931V76.3793H91.8966V73.2759Z" fill="black"/>
<path d="M8.10345 76.3793H5V79.4828H8.10345V76.3793Z" fill="black"/>
<path d="M26.7241 76.3793H23.6207V79.4828H26.7241V76.3793Z" fill="black"/>
<path d="M36.0345 76.3793H32.931V79.4828H36.0345V76.3793Z" fill="black"/>
<path d="M39.1379 76.3793H36.0345V79.4828H39.1379V76.3793Z" fill="black"/>
<path d="M42.2414 76.3793H39.1379V79.4828H42.2414V76.3793Z" fill="black"/>
<path d="M45.3448 76.3793H42.2414V79.4828H45.3448V76.3793Z" fill="black"/>
<path d="M48.4483 76.3793H45.3448V79.4828H48.4483V76.3793Z" fill="black"/>
<path d="M54.6552 76.3793H51.5517V79.4828H54.6552V76.3793Z" fill="black"/>
<path d="M70.1724 76.3793H67.069V79.4828H70.1724V76.3793Z" fill="black"/>
<path d="M82.5862 76.3793H79.4828V79.4828H82.5862V76.3793Z" fill="black"/>
<path d="M88.7931 76.3793H85.6897V79.4828H88.7931V76.3793Z" fill="black"/>
<path d="M91.8966 76.3793H88.7931V79.4828H91.8966V76.3793Z" fill="black"/>
<path d="M95 76.3793H91.8966V79.4828H95V76.3793Z" fill="black"/>
<path d="M8.10345 79.4828H5V82.5862H8.10345V79.4828Z" fill="black"/>
<path d="M14.3103 79.4828H11.2069V82.5862H14.3103V79.4828Z" fill="black"/>
<path d="M17.4138 79.4828H14.3103V82.5862H17.4138V79.4828Z" fill="black"/>
<path d="M20.5172 79.4828H17.4138V82.5862H20.5172V79.4828Z" fill="black"/>
<path d="M26.7241 79.4828H23.6207V82.5862H26.7241V79.4828Z" fill="black"/>
<path d="M36.0345 79.4828H32.931V82.5862H36.0345V79.4828Z" fill="black"/>
<path d="M39.1379 79.4828H36.0345V82.5862H39.1379V79.4828Z" fill="black"/>
<path d="M48.4483 79.4828H45.3448V82.5862H48.4483V79.4828Z" fill="black"/>
<path d="M60.8621 79.4828H57.7586V82.5862H60.8621V79.4828Z" fill="black"/>
<path d="M63.9655 79.4828H60.8621V82.5862H63.9655V79.4828Z" fill="black"/>
<path d="M67.069 79.4828H63.9655V82.5862H67.069V79.4828Z" fill="black"/>
<path d="M70.1724 79.4828H67.069V82.5862H70.1724V79.4828Z" fill="black"/>
<path d="M73.2759 79.4828H70.1724V82.5862H73.2759V79.4828Z" fill="black"/>
<path d="M76.3793 79.4828H73.2759V82.5862H76.3793V79.4828Z" fill="black"/>
<path d="M79.4828 79.4828H76.3793V82.5862H79.4828V79.4828Z" fill="black"/>
<path d="M82.5862 79.4828H79.4828V82.5862H82.5862V79.4828Z" fill="black"/>
<path d="M88.7931 79.4828H85.6897V82.5862H88.7931V79.4828Z" fill="black"/>
<path d="M95 79.4828H91.8966V82.5862H95V79.4828Z" fill="black"/>
<path d="M8.10345 82.5862H5V85.6897H8.10345V82.5862Z" fill="black"/>
<path d="M14.3103 82.5862H11.2069V85.6897H14.3103V82.5862Z" fill="black"/>
<path d="M17.4138 82.5862H14.3103V85.6897H17.4138V82.5862Z" fill="black"/>
<path d="M20.5172 82.5862H17.4138V85.6897H20.5172V82.5862Z" fill="black"/>
<path d="M26.7241 82.5862H23.6207V85.6897H26.7241V82.5862Z" fill="black"/>
<path d="M32.931 82.5862H29.8276V85.6897H32.931V82.5862Z" fill="black"/>
<path d="M42.2414 82.5862H39.1379V85.6897H42.2414V82.5862Z" fill="black"/>
<path d="M51.5517 82.5862H48.4483V85.6897H51.5517V82.5862Z" fill="black"/>
<path d="M57.7586 82.5862H54.6552V85.6897H57.7586V82.5862Z" fill="black"/>
<path d="M63.9655 82.5862H60.8621V85.6897H63.9655V82.5862Z" fill="black"/>
<path d="M73.2759 82.5862H70.1724V85.6897H73.2759V82.5862Z" fill="black"/>
<path d="M76.3793 82.5862H73.2759V85.6897H76.3793V82.5862Z" fill="black"/>
<path d="M82.5862 82.5862H79.4828V85.6897H82.5862V82.5862Z" fill="black"/>
<path d="M85.6897 82.5862H82.5862V85.6897H85.6897V82.5862Z" fill="black"/>
<path d="M88.7931 82.5862H85.6897V85.6897H88.7931V82.5862Z" fill="black"/>
<path d="M91.8966 82.5862H88.7931V85.6897H91.8966V82.5862Z" fill="black"/>
<path d="M95 82.5862H91.8966V85.6897H95V82.5862Z" fill="black"/>
<path d="M8.10345 85.6897H5V88.7931H8.10345V85.6897Z" fill="black"/>
<path d="M14.3103 85.6897H11.2069V88.7931H14.3103V85.6897Z" fill="black"/>
<path d="M17.4138 85.6897H14.3103V88.7931H17.4138V85.6897Z" fill="black"/>
<path d="M20.5172 85.6897H17.4138V88.7931H20.5172V85.6897Z" fill="black"/>
<path d="M26.7241 85.6897H23.6207V88.7931H26.7241V85.6897Z" fill="black"/>
<path d="M32.931 85.6897H29.8276V88.7931H32.931V85.6897Z" fill="black"/>
<path d="M36.0345 85.6897H32.931V88.7931H36.0345V85.6897Z" fill="black"/>
<path d="M51.5517 85.6897H48.4483V88.7931H51.5517V85.6897Z" fill="black"/>
<path d="M54.6552 85.6897H51.5517V88.7931H54.6552V85.6897Z" fill="black"/>
<path d="M57.7586 85.6897H54.6552V88.7931H57.7586V85.6897Z" fill="black"/>
<path d="M60.8621 85.6897H57.7586V88.7931H60.8621V85.6897Z" fill="black"/>
<path d="M70.1724 85.6897H67.069V88.7931H70.1724V85.6897Z" fill="black"/>
<path d="M76.3793 85.6897H73.2759V88.7931H76.3793V85.6897Z" fill="black"/>
<path d="M85.6897 85.6897H82.5862V88.7931H85.6897V85.6897Z" fill="black"/>
<path d="M88.7931 85.6897H85.6897V88.7931H88.7931V85.6897Z" fill="black"/>
<path d="M91.8966 85.6897H88.7931V88.7931H91.8966V85.6897Z" fill="black"/>
<path d="M95 85.6897H91.8966V88.7931H95V85.6897Z" fill="black"/>
<path d="M8.10345 88.7931H5V91.8966H8.10345V88.7931Z" fill="black"/>
<path d="M26.7241 88.7931H23.6207V91.8966H26.7241V88.7931Z" fill="black"/>
<path d="M32.931 88.7931H29.8276V91.8966H32.931V88.7931Z" fill="black"/>
<path d="M36.0345 88.7931H32.931V91.8966H36.0345V88.7931Z" fill="black"/>
<path d="M48.4483 88.7931H45.3448V91.8966H48.4483V88.7931Z" fill="black"/>
<path d="M60.8621 88.7931H57.7586V91.8966H60.8621V88.7931Z" fill="black"/>
<path d="M70.1724 88.7931H67.069V91.8966H70.1724V88.7931Z" fill="black"/>
<path d="M82.5862 88.7931H79.4828V91.8966H82.5862V88.7931Z" fill="black"/>
<path d="M85.6897 88.7931H82.5862V91.8966H85.6897V88.7931Z" fill="black"/>
<path d="M88.7931 88.7931H85.6897V91.8966H88.7931V88.7931Z" fill="black"/>
<path d="M8.10345 91.8966H5V95H8.10345V91.8966Z" fill="black"/>
<path d="M11.2069 91.8966H8.10345V95H11.2069V91.8966Z" fill="black"/>
<path d="M14.3103 91.8966H11.2069V95H14.3103V91.8966Z" fill="black"/>
<path d="M17.4138 91.8966H14.3103V95H17.4138V91.8966Z" fill="black"/>
<path d="M20.5172 91.8966H17.4138V95H20.5172V91.8966Z" fill="black"/>
<path d="M23.6207 91.8966H20.5172V95H23.6207V91.8966Z" fill="black"/>
<path d="M26.7241 91.8966H23.6207V95H26.7241V91.8966Z" fill="black"/>
<path d="M45.3448 91.8966H42.2414V95H45.3448V91.8966Z" fill="black"/>
<path d="M48.4483 91.8966H45.3448V95H48.4483V91.8966Z" fill="black"/>
<path d="M54.6552 91.8966H51.5517V95H54.6552V91.8966Z" fill="black"/>
<path d="M60.8621 91.8966H57.7586V95H60.8621V91.8966Z" fill="black"/>
<path d="M63.9655 91.8966H60.8621V95H63.9655V91.8966Z" fill="black"/>
<path d="M70.1724 91.8966H67.069V95H70.1724V91.8966Z" fill="black"/>
<path d="M79.4828 91.8966H76.3793V95H79.4828V91.8966Z" fill="black"/>
<path d="M91.8966 91.8966H88.7931V95H91.8966V91.8966Z" fill="black"/>
</svg>
