<svg xmlns="http://www.w3.org/2000/svg" xmlns:xlink="http://www.w3.org/1999/xlink" viewBox="0,0,256,256" width="64px" height="64px"><g transform="translate(-23.04,-23.04) scale(1.18,1.18)"><g fill="none" fill-rule="nonzero" stroke="none" stroke-width="1" stroke-linecap="butt" stroke-linejoin="miter" stroke-miterlimit="10" stroke-dasharray="" stroke-dashoffset="0" font-family="none" font-weight="none" font-size="none" text-anchor="none" style="mix-blend-mode: normal"><g transform="scale(5.33333,5.33333)"><path d="M14.125,35.188l-9.687,-7.625l4.812,-8.938l13.812,5.375z" fill="#f57c00"></path><path d="M44,14.688l-0.75,23.125l-15.375,6.187l-9.25,-6l13.5,-14z" fill="#1e88e5"></path><path d="M44,14.688l-12.188,14.375l-5.562,-18.063l5.313,-6.375z" fill="#2962ff"></path><path d="M34.688,19.625l-11.438,17.563l-16,5.812l2.563,-9l3.312,-11.125z" fill="#ab47bc"></path><path d="M13.125,22.875l-9.125,-3.062l5.813,-15.813l12.5,1.5l12.375,14.125z" fill="#e91e63"></path><path d="M11,11h25v25h-25z" fill="#000001"></path><path d="M14,31.5h9v1.5h-9zM20.5,15.875v-1.875h-5v1.875h1.5v6.5h-1.5v1.875h5v-1.875h-1.341v-6.5zM25.375,24.5c-1.875,0 -2.871,-1.098 -3.25,-1.548l1.411,-1.605c0.255,0.282 0.964,1.028 1.839,1.028c1.125,0 1.375,-1.125 1.375,-1.75v-6.625h2.25v6.625c0,0.624 0,1.625 -0.75,2.625c-0.525,0.7 -1.75,1.25 -2.875,1.25z" fill="#ffffff"></path></g></g></g></svg>